# xmcd
#
# Track frame offsets:
#	150
#	14515
#	35447
#	57600
#	78160
#	96892
#	118120
#	134845
#
# Disc length: 2047 seconds
#
# Revision: 0
# Processed by: cddbd v1.5.2PL0 Copyright (c) Steve Scherf et al.
# Submitted via: EasyCDDAExtractor 16.0.6.1
#
DISCID=6e07fd08
DTITLE=Mr. Highway Band - Is that myself
DYEAR=2012
DGENRE=Country
TTITLE0=No one can bring me down
TTITLE1=I'm gonna give you love
TTITLE2=Tonight today
TTITLE3=Revolution
TTITLE4=Train to North
TTITLE5=Hard place
TTITLE6=Overdose
TTITLE7=Maybe sometime
EXTD=
EXTT0=
EXTT1=
EXTT2=
EXTT3=
EXTT4=
EXTT5=
EXTT6=
EXTT7=
PLAYORDER=
